<svg width="187" height="37" viewBox="0 0 187 37" fill="none" xmlns="http://www.w3.org/2000/svg">
<g clip-path="url(#clip0_2_63)">
<path d="M23.8667 16.4C19.9667 19.2704 19.2 23.4667 19.2 26.9667C19.3778 25.9222 20.1933 23.4733 22.0333 22.0333C24.7667 19.8942 29.7666 20.5989 35.2333 16.9667C40.7 13.3344 41.2333 8.60001 40.5333 4.96667C40.047 8.47256 38.3872 10.0005 36.1 11.3667C31.1334 14.3333 28.0334 13.3333 23.8667 16.4Z" fill="url(#paint0_linear_2_63)"/>
<path d="M23.8667 16.4C19.9667 19.2704 19.2 23.4667 19.2 26.9667C19.3778 25.9222 20.1933 23.4733 22.0333 22.0333C24.7667 19.8942 29.7666 20.5989 35.2333 16.9667C40.7 13.3344 41.2333 8.60001 40.5333 4.96667C40.047 8.47256 38.3872 10.0005 36.1 11.3667C31.1334 14.3333 28.0334 13.3333 23.8667 16.4Z" fill="url(#paint1_linear_2_63)"/>
<path d="M19.2466 25.532C19.4606 22.3695 20.4875 18.887 23.8667 16.4C26.0388 14.8013 27.9211 14.3078 29.9291 13.7813C31.1009 13.4741 32.3155 13.1556 33.6556 12.5997C33.1667 13.0667 30.8436 14.1567 29.0913 14.8849C27.3435 15.6113 25.5009 16.3772 23.9667 17.4C20.8885 19.4521 19.6369 23.0225 19.2466 25.532Z" fill="url(#paint2_linear_2_63)"/>
<path d="M19.2466 25.532C19.4606 22.3695 20.4875 18.887 23.8667 16.4C26.0388 14.8013 27.9211 14.3078 29.9291 13.7813C31.1009 13.4741 32.3155 13.1556 33.6556 12.5997C33.1667 13.0667 30.8436 14.1567 29.0913 14.8849C27.3435 15.6113 25.5009 16.3772 23.9667 17.4C20.8885 19.4521 19.6369 23.0225 19.2466 25.532Z" fill="url(#paint3_linear_2_63)"/>
<path d="M38.2177 14.3709C37.8344 14.7463 37.4071 15.0825 36.9334 15.3667C34.8 16.6467 32.5325 17.0595 30.3261 17.4611C28.5678 17.7812 26.8484 18.0942 25.2667 18.8333C21.7003 20.4999 19.5003 23.9662 19.2001 26.9661C19.2001 26.9662 19.2001 26.9663 19.2 26.9665C19.2 26.9659 19.2 26.9654 19.2 26.9648C19.2 26.7359 19.2033 26.5039 19.2106 26.2695C19.2287 25.8977 19.2672 25.4857 19.3308 25.0463C19.8016 22.5792 21.0822 19.323 23.9667 17.4C25.1878 16.5859 26.6042 15.9347 28.0127 15.3365C29.2513 14.9298 30.3677 14.6768 31.4313 14.4356C33.1056 14.056 34.6491 13.7061 36.3334 12.8333C39.8675 11.002 40.7934 7.2388 40.5445 5.02515C41.0729 7.83003 40.8593 11.2799 38.2177 14.3709Z" fill="url(#paint4_linear_2_63)"/>
<path d="M38.2177 14.371C37.8344 14.7464 37.407 15.0825 36.9334 15.3667C34.8001 16.6467 32.5325 17.0595 30.3261 17.4611C28.5679 17.7812 26.8485 18.0942 25.2667 18.8333C23.2157 19.7918 21.6166 21.3455 20.5708 23.0634C21.4935 21.7669 22.8992 20.3185 24.6334 19.7667C26.3256 19.2282 27.9398 19.1726 29.6167 19.1148C30.0973 19.0982 30.5831 19.0815 31.0774 19.0532C32.4095 18.5682 33.8055 17.9154 35.2333 16.9667C36.4641 16.1489 37.4448 15.2753 38.2177 14.371Z" fill="url(#paint5_linear_2_63)"/>
<path d="M38.2177 14.371C37.8344 14.7464 37.407 15.0825 36.9334 15.3667C34.8001 16.6467 32.5325 17.0595 30.3261 17.4611C28.5679 17.7812 26.8485 18.0942 25.2667 18.8333C23.2157 19.7918 21.6166 21.3455 20.5708 23.0634C21.4935 21.7669 22.8992 20.3185 24.6334 19.7667C26.3256 19.2282 27.9398 19.1726 29.6167 19.1148C30.0973 19.0982 30.5831 19.0815 31.0774 19.0532C32.4095 18.5682 33.8055 17.9154 35.2333 16.9667C36.4641 16.1489 37.4448 15.2753 38.2177 14.371Z" fill="url(#paint6_linear_2_63)"/>
<path d="M40.5445 5.02515C40.5408 5.00562 40.5371 4.98613 40.5333 4.96667C40.047 8.47256 38.3872 10.0005 36.1 11.3667C35.2336 11.8842 34.4239 12.281 33.6556 12.5998C33.1666 13.0667 30.8435 14.1567 29.0913 14.885L29.091 14.8851C28.7344 15.0333 28.3738 15.1831 28.0127 15.3365C29.2514 14.9298 30.3677 14.6767 31.4313 14.4356C33.1055 14.056 34.6491 13.7061 36.3334 12.8333C39.8674 11.002 40.7934 7.2388 40.5445 5.02515Z" fill="url(#paint7_linear_2_63)"/>
<path d="M40.5445 5.02515C40.5408 5.00562 40.5371 4.98613 40.5333 4.96667C40.047 8.47256 38.3872 10.0005 36.1 11.3667C35.2336 11.8842 34.4239 12.281 33.6556 12.5998C33.1666 13.0667 30.8435 14.1567 29.0913 14.885L29.091 14.8851C28.7344 15.0333 28.3738 15.1831 28.0127 15.3365C29.2514 14.9298 30.3677 14.6767 31.4313 14.4356C33.1055 14.056 34.6491 13.7061 36.3334 12.8333C39.8674 11.002 40.7934 7.2388 40.5445 5.02515Z" fill="url(#paint8_linear_2_63)"/>
<path d="M40.5206 11.0585C40.5169 11.039 40.5132 11.0195 40.5095 11C40.0231 14.5059 38.3634 16.0338 36.0762 17.4C35.2097 17.9175 34.4001 18.3144 33.6317 18.6331C33.1427 19.1001 30.8197 20.19 29.0674 20.9183C28.7108 21.0665 28.35 21.2165 27.9889 21.3698C29.2275 20.9632 30.3438 20.7101 31.4074 20.4689C33.0817 20.0894 34.6253 19.7394 36.3095 18.8667C39.8436 17.0354 40.7695 13.2721 40.5206 11.0585Z" fill="url(#paint9_linear_2_63)"/>
<path d="M22.5593 12.5956C22.9426 12.2201 23.37 11.884 23.8437 11.5998C25.977 10.3198 28.2446 9.90699 30.451 9.50533C32.2092 9.18526 33.9286 8.87225 35.5103 8.13312C39.0768 6.46657 41.2767 3.00025 41.5769 0.00038147C41.577 0.000255585 41.577 0.000131607 41.577 5.72205e-06C41.577 0.000543594 41.577 0.00108147 41.577 0.00162125C41.577 0.230608 41.5737 0.462578 41.5665 0.696955C41.5483 1.06879 41.5099 1.4808 41.4463 1.92017C40.9754 4.38727 39.6948 7.64347 36.8103 9.56647C35.5893 10.3805 34.1728 11.0318 32.7644 11.6299C31.5257 12.0366 30.4094 12.2897 29.3458 12.5308C27.6715 12.9104 26.1279 13.2604 24.4437 14.1331C20.9096 15.9644 19.9837 19.7277 20.2326 21.9413C19.7042 19.1364 19.9178 15.6865 22.5593 12.5956Z" fill="url(#paint10_linear_2_63)"/>
</g>
<path d="M54.58 22.34C54.5667 21.9133 54.56 21.48 54.56 21.04C54.56 20.6133 54.56 20.1867 54.56 19.76C54.56 17.8 54.6 15.9 54.68 14.06C54.76 12.2067 54.8533 10.44 54.96 8.76C54.4267 8.89333 53.98 9.02 53.62 9.14L52.84 5.94C53.4933 5.74 54.18 5.56667 54.9 5.42C55.6333 5.26 56.3467 5.13333 57.04 5.04C57.7467 4.93333 58.3933 4.86 58.98 4.82C59.58 4.76667 60.0733 4.74 60.46 4.74C60.8733 4.74 61.38 4.77333 61.98 4.84C62.5933 4.90667 63.22 5.04667 63.86 5.26C64.5133 5.46 65.12 5.76667 65.68 6.18C66.24 6.59333 66.6933 7.15333 67.04 7.86C67.4 8.55333 67.58 9.42667 67.58 10.48C67.58 11.5733 67.34 12.4867 66.86 13.22C66.38 13.94 65.7467 14.52 64.96 14.96C64.1733 15.3867 63.3067 15.6933 62.36 15.88C61.4133 16.0667 60.48 16.16 59.56 16.16C58.9733 16.16 58.4133 16.1333 57.88 16.08C57.8667 16.72 57.86 17.3533 57.86 17.98C57.86 18.8333 57.8667 19.6267 57.88 20.36C57.8933 21.08 57.92 21.7133 57.96 22.26L54.58 22.34ZM60.36 8.02C60.0133 8.02 59.6533 8.03333 59.28 8.06C58.92 8.08667 58.56 8.12 58.2 8.16C58.1333 8.86667 58.08 9.63333 58.04 10.46C58 11.2867 57.9667 12.1333 57.94 13C58.4333 13.04 58.9467 13.06 59.48 13.06C62.68 13.06 64.28 12.1133 64.28 10.22C64.28 9.47333 63.96 8.92 63.32 8.56C62.68 8.2 61.6933 8.02 60.36 8.02ZM69.8453 22.38C69.7386 21.6867 69.6453 20.8467 69.5653 19.86C69.4986 18.8733 69.4453 17.8 69.4053 16.64C69.3786 15.48 69.3653 14.3 69.3653 13.1C69.3653 11.5933 69.392 10.1267 69.4453 8.7C69.4986 7.27333 69.5786 6.02 69.6853 4.94L73.3653 5C73.2186 5.94667 73.1053 7.06 73.0253 8.34C72.9586 9.62 72.9253 11.0733 72.9253 12.7C72.9253 14.3533 72.952 16.0133 73.0053 17.68C73.072 19.3467 73.1453 20.8733 73.2253 22.26L69.8453 22.38ZM77.6861 22.7L75.1861 20.12C75.8528 19.2933 76.7128 18.2733 77.7661 17.06C78.8194 15.8467 79.9461 14.58 81.1461 13.26C79.9461 11.9933 78.8194 10.8267 77.7661 9.76C76.7128 8.69333 75.8594 7.83333 75.2061 7.18L77.7861 4.74C78.4128 5.35333 79.2328 6.18667 80.2461 7.24C81.2728 8.29333 82.3661 9.44667 83.5261 10.7C84.5928 9.58 85.6328 8.51333 86.6461 7.5C87.6728 6.48667 88.6061 5.62 89.4461 4.9L91.9461 7.42C91.1194 8.12667 90.1861 8.98667 89.1461 10C88.1061 11.0133 87.0328 12.0933 85.9261 13.24C87.1128 14.5067 88.2461 15.74 89.3261 16.94C90.4194 18.14 91.3461 19.18 92.1061 20.06L89.3461 22.62C88.6261 21.6467 87.7528 20.5667 86.7261 19.38C85.7128 18.1933 84.6461 17 83.5261 15.8C82.3528 17.0667 81.2528 18.3067 80.2261 19.52C79.1994 20.72 78.3528 21.78 77.6861 22.7ZM94.337 22.38C94.3237 22.2733 94.3104 22.1333 94.297 21.96C94.297 21.7867 94.297 21.5867 94.297 21.36C94.297 20.8133 94.3104 20.1467 94.337 19.36C94.377 18.56 94.4237 17.6933 94.477 16.76C94.5304 15.8133 94.5904 14.86 94.657 13.9C94.7237 12.9267 94.7904 11.9933 94.857 11.1C94.937 10.1933 95.0104 9.38667 95.077 8.68C94.8637 8.70667 94.657 8.73333 94.457 8.76L94.017 5.36C95.4037 5.17333 96.877 5.04 98.437 4.96C100.01 4.88 101.544 4.84 103.037 4.84C104.157 4.84 105.23 4.86667 106.257 4.92C107.297 4.96 108.23 5.02 109.057 5.1L108.757 8.42C108.144 8.3 107.444 8.22 106.657 8.18C105.87 8.12667 105.024 8.1 104.117 8.1C103.184 8.1 102.217 8.12667 101.217 8.18C100.23 8.22 99.2704 8.27333 98.337 8.34C98.2837 8.87333 98.2304 9.42667 98.177 10C98.137 10.5733 98.097 11.1667 98.057 11.78C98.7504 11.6867 99.517 11.62 100.357 11.58C101.21 11.54 102.057 11.52 102.897 11.52C103.857 11.52 104.757 11.5467 105.597 11.6C106.45 11.6533 107.104 11.7467 107.557 11.88L107.317 15.1C106.384 14.9933 105.51 14.92 104.697 14.88C103.884 14.8267 103.09 14.8 102.317 14.8C100.81 14.8 99.3237 14.9 97.857 15.1C97.777 16.5 97.7104 17.8333 97.657 19.1C97.617 20.3667 97.5837 21.4333 97.557 22.3L94.337 22.38ZM111.173 22.38C111.067 21.6867 110.973 20.8467 110.893 19.86C110.827 18.8733 110.773 17.8 110.733 16.64C110.707 15.48 110.693 14.3 110.693 13.1C110.693 11.5933 110.72 10.1267 110.773 8.7C110.827 7.27333 110.907 6.02 111.013 4.94L114.693 5C114.547 5.94667 114.433 7.06 114.353 8.34C114.287 9.62 114.253 11.0733 114.253 12.7C114.253 14.3533 114.28 16.0133 114.333 17.68C114.4 19.3467 114.473 20.8733 114.553 22.26L111.173 22.38ZM119.014 22.7L116.514 20.12C117.181 19.2933 118.041 18.2733 119.094 17.06C120.148 15.8467 121.274 14.58 122.474 13.26C121.274 11.9933 120.148 10.8267 119.094 9.76C118.041 8.69333 117.188 7.83333 116.534 7.18L119.114 4.74C119.741 5.35333 120.561 6.18667 121.574 7.24C122.601 8.29333 123.694 9.44667 124.854 10.7C125.921 9.58 126.961 8.51333 127.974 7.5C129.001 6.48667 129.934 5.62 130.774 4.9L133.274 7.42C132.448 8.12667 131.514 8.98667 130.474 10C129.434 11.0133 128.361 12.0933 127.254 13.24C128.441 14.5067 129.574 15.74 130.654 16.94C131.748 18.14 132.674 19.18 133.434 20.06L130.674 22.62C129.954 21.6467 129.081 20.5667 128.054 19.38C127.041 18.1933 125.974 17 124.854 15.8C123.681 17.0667 122.581 18.3067 121.554 19.52C120.528 20.72 119.681 21.78 119.014 22.7Z" fill="#6C6CE0"/>
<path d="M157.891 16.0585C157.871 16.039 157.852 16.0195 157.832 16C155.248 19.5059 146.43 21.0338 134.28 22.4C129.677 22.9175 125.376 23.3144 121.293 23.6331C118.696 24.1001 106.355 25.19 97.0457 25.9183C95.1511 26.0665 93.2341 26.2165 91.3158 26.3698C97.8961 25.9632 103.827 25.7101 109.477 25.4689C118.372 25.0894 126.572 24.7394 135.519 23.8667C154.294 22.0354 159.213 18.2721 157.891 16.0585Z" fill="url(#paint11_linear_2_63)"/>
<defs>
<linearGradient id="paint0_linear_2_63" x1="31.4" y1="18.2" x2="19.8667" y2="26.4667" gradientUnits="userSpaceOnUse">
<stop stop-color="#FE5004"/>
<stop offset="0.602538" stop-color="#FFB915"/>
<stop offset="1" stop-color="#FFFC41"/>
</linearGradient>
<linearGradient id="paint1_linear_2_63" x1="26.8333" y1="18.9" x2="26.9" y2="20.1" gradientUnits="userSpaceOnUse">
<stop stop-color="#FD3E00"/>
<stop offset="1" stop-color="#FD4400" stop-opacity="0"/>
</linearGradient>
<linearGradient id="paint2_linear_2_63" x1="33.6667" y1="12" x2="17.4" y2="26.4667" gradientUnits="userSpaceOnUse">
<stop stop-color="#005FC6"/>
<stop offset="0.279756" stop-color="#23A4DF"/>
<stop offset="0.465158" stop-color="#3AC2B7"/>
<stop offset="0.640642" stop-color="#60EC7A"/>
<stop offset="0.818668" stop-color="#CFFDBD"/>
<stop offset="1" stop-color="#D0FCB6"/>
</linearGradient>
<linearGradient id="paint3_linear_2_63" x1="30.3667" y1="14.7667" x2="28.9667" y2="13.5" gradientUnits="userSpaceOnUse">
<stop stop-color="#0061CB"/>
<stop offset="1" stop-color="#067EEA" stop-opacity="0"/>
</linearGradient>
<linearGradient id="paint4_linear_2_63" x1="40.6" y1="5.00001" x2="19.2" y2="26.9333" gradientUnits="userSpaceOnUse">
<stop stop-color="#8E55F1"/>
<stop offset="0.140795" stop-color="#8B48DF"/>
<stop offset="0.274905" stop-color="#E04DD9"/>
<stop offset="0.492309" stop-color="#F496C8"/>
<stop offset="0.633104" stop-color="#FAD2BA"/>
<stop offset="0.856964" stop-color="#FEF7E5"/>
<stop offset="1" stop-color="#FFF5BF"/>
</linearGradient>
<linearGradient id="paint5_linear_2_63" x1="38.5" y1="14.1667" x2="21.0333" y2="22.0667" gradientUnits="userSpaceOnUse">
<stop stop-color="#F41A73"/>
<stop offset="0.399909" stop-color="#FC50A3"/>
<stop offset="0.584511" stop-color="#FE9485"/>
<stop offset="0.703104" stop-color="#FFAF88"/>
<stop offset="1" stop-color="#FFC385"/>
</linearGradient>
<linearGradient id="paint6_linear_2_63" x1="32.2" y1="16.6" x2="32.2333" y2="18.2" gradientUnits="userSpaceOnUse">
<stop stop-color="#9B0008"/>
<stop offset="1" stop-color="#EA115A" stop-opacity="0"/>
</linearGradient>
<linearGradient id="paint7_linear_2_63" x1="40.6" y1="6.80001" x2="24.8333" y2="17.1" gradientUnits="userSpaceOnUse">
<stop stop-color="#231283"/>
<stop offset="0.362865" stop-color="#7053C6"/>
<stop offset="0.466353" stop-color="#7272DB"/>
<stop offset="0.634311" stop-color="#399EE9"/>
<stop offset="1" stop-color="#00CFFF"/>
</linearGradient>
<linearGradient id="paint8_linear_2_63" x1="36.6667" y1="12" x2="37.3667" y2="12.9" gradientUnits="userSpaceOnUse">
<stop stop-color="#3F259D" stop-opacity="0"/>
<stop offset="1" stop-color="#412DAA"/>
</linearGradient>
<linearGradient id="paint9_linear_2_63" x1="40.5873" y1="12.8333" x2="24.8206" y2="23.1333" gradientUnits="userSpaceOnUse">
<stop stop-color="#231283"/>
<stop offset="0.362865" stop-color="#7053C6"/>
<stop offset="0.466353" stop-color="#7272DB"/>
<stop offset="0.634311" stop-color="#399EE9"/>
<stop offset="1" stop-color="#00CFFF"/>
</linearGradient>
<linearGradient id="paint10_linear_2_63" x1="20.177" y1="21.9665" x2="41.577" y2="0.033118" gradientUnits="userSpaceOnUse">
<stop stop-color="#8E55F1"/>
<stop offset="0.140795" stop-color="#8B48DF"/>
<stop offset="0.274905" stop-color="#E04DD9"/>
<stop offset="0.492309" stop-color="#F496C8"/>
<stop offset="0.633104" stop-color="#FAD2BA"/>
<stop offset="0.856964" stop-color="#FEF7E5"/>
<stop offset="1" stop-color="#FFF5BF"/>
</linearGradient>
<linearGradient id="paint11_linear_2_63" x1="158.245" y1="17.8333" x2="149.084" y2="49.6283" gradientUnits="userSpaceOnUse">
<stop stop-color="#231283"/>
<stop offset="0.362865" stop-color="#7053C6"/>
<stop offset="0.466353" stop-color="#7272DB"/>
<stop offset="0.634311" stop-color="#399EE9"/>
<stop offset="1" stop-color="#00CFFF"/>
</linearGradient>
<clipPath id="clip0_2_63">
<rect width="32" height="32" fill="white" transform="translate(14)"/>
</clipPath>
</defs>
</svg>
