<svg width="32" height="32" viewBox="0 0 32 32" fill="none" xmlns="http://www.w3.org/2000/svg">
<g clip-path="url(#clip0_2_22)">
<path d="M9.86668 16.4C5.9667 19.2704 5.2 23.4667 5.2 26.9667C5.37778 25.9222 6.19333 23.4733 8.03333 22.0333C10.7667 19.8942 15.7666 20.5989 21.2333 16.9667C26.7 13.3344 27.2333 8.60001 26.5333 4.96667C26.047 8.47256 24.3872 10.0005 22.1 11.3667C17.1334 14.3333 14.0334 13.3333 9.86668 16.4Z" fill="url(#paint0_linear_2_22)"/>
<path d="M9.86668 16.4C5.9667 19.2704 5.2 23.4667 5.2 26.9667C5.37778 25.9222 6.19333 23.4733 8.03333 22.0333C10.7667 19.8942 15.7666 20.5989 21.2333 16.9667C26.7 13.3344 27.2333 8.60001 26.5333 4.96667C26.047 8.47256 24.3872 10.0005 22.1 11.3667C17.1334 14.3333 14.0334 13.3333 9.86668 16.4Z" fill="url(#paint1_linear_2_22)"/>
<path d="M5.24664 25.532C5.46065 22.3695 6.48752 18.887 9.86667 16.4C12.0388 14.8013 13.9211 14.3078 15.9291 13.7813C17.1009 13.4741 18.3155 13.1556 19.6556 12.5997C19.1667 13.0667 16.8436 14.1567 15.0913 14.885C13.3435 15.6113 11.5009 16.3772 9.96668 17.4C6.88849 19.4521 5.63687 23.0225 5.24664 25.532Z" fill="url(#paint2_linear_2_22)"/>
<path d="M5.24664 25.532C5.46065 22.3695 6.48752 18.887 9.86667 16.4C12.0388 14.8013 13.9211 14.3078 15.9291 13.7813C17.1009 13.4741 18.3155 13.1556 19.6556 12.5997C19.1667 13.0667 16.8436 14.1567 15.0913 14.885C13.3435 15.6113 11.5009 16.3772 9.96668 17.4C6.88849 19.4521 5.63687 23.0225 5.24664 25.532Z" fill="url(#paint3_linear_2_22)"/>
<path d="M24.2177 14.3709C23.8344 14.7463 23.4071 15.0825 22.9334 15.3667C20.8 16.6467 18.5325 17.0595 16.3261 17.4611C14.5678 17.7812 12.8484 18.0942 11.2667 18.8333C7.70027 20.4999 5.50033 23.9662 5.2001 26.9661C5.20008 26.9662 5.20005 26.9663 5.20003 26.9665C5.20002 26.9659 5.20001 26.9654 5.2 26.9648C5.20001 26.7359 5.20332 26.5039 5.21056 26.2695C5.22873 25.8977 5.26718 25.4857 5.33079 25.0463C5.80163 22.5792 7.08219 19.323 9.96669 17.4C11.1878 16.5859 12.6042 15.9347 14.0127 15.3365C15.2513 14.9298 16.3677 14.6768 17.4313 14.4356C19.1056 14.056 20.6491 13.7061 22.3334 12.8333C25.8675 11.002 26.7934 7.2388 26.5445 5.02515C27.0729 7.83003 26.8593 11.2799 24.2177 14.3709Z" fill="url(#paint4_linear_2_22)"/>
<path d="M24.2177 14.371C23.8344 14.7464 23.407 15.0825 22.9334 15.3667C20.8001 16.6467 18.5325 17.0595 16.3261 17.4611C14.5679 17.7812 12.8485 18.0942 11.2667 18.8334C9.21566 19.7918 7.61656 21.3455 6.57083 23.0634C7.49352 21.7669 8.89916 20.3185 10.6334 19.7667C12.3256 19.2283 13.9398 19.1726 15.6167 19.1148C16.0973 19.0982 16.5831 19.0815 17.0774 19.0532C18.4095 18.5682 19.8055 17.9154 21.2333 16.9667C22.4641 16.1489 23.4448 15.2753 24.2177 14.371Z" fill="url(#paint5_linear_2_22)"/>
<path d="M24.2177 14.371C23.8344 14.7464 23.407 15.0825 22.9334 15.3667C20.8001 16.6467 18.5325 17.0595 16.3261 17.4611C14.5679 17.7812 12.8485 18.0942 11.2667 18.8334C9.21566 19.7918 7.61656 21.3455 6.57083 23.0634C7.49352 21.7669 8.89916 20.3185 10.6334 19.7667C12.3256 19.2283 13.9398 19.1726 15.6167 19.1148C16.0973 19.0982 16.5831 19.0815 17.0774 19.0532C18.4095 18.5682 19.8055 17.9154 21.2333 16.9667C22.4641 16.1489 23.4448 15.2753 24.2177 14.371Z" fill="url(#paint6_linear_2_22)"/>
<path d="M26.5445 5.02515C26.5408 5.00562 26.5371 4.98613 26.5333 4.96667C26.047 8.47256 24.3872 10.0005 22.1 11.3667C21.2336 11.8842 20.4239 12.281 19.6556 12.5998C19.1666 13.0667 16.8435 14.1567 15.0913 14.885L15.091 14.8851C14.7344 15.0333 14.3738 15.1831 14.0127 15.3365C15.2514 14.9298 16.3677 14.6767 17.4313 14.4356C19.1055 14.056 20.6491 13.7061 22.3334 12.8333C25.8674 11.002 26.7934 7.2388 26.5445 5.02515Z" fill="url(#paint7_linear_2_22)"/>
<path d="M26.5445 5.02515C26.5408 5.00562 26.5371 4.98613 26.5333 4.96667C26.047 8.47256 24.3872 10.0005 22.1 11.3667C21.2336 11.8842 20.4239 12.281 19.6556 12.5998C19.1666 13.0667 16.8435 14.1567 15.0913 14.885L15.091 14.8851C14.7344 15.0333 14.3738 15.1831 14.0127 15.3365C15.2514 14.9298 16.3677 14.6767 17.4313 14.4356C19.1055 14.056 20.6491 13.7061 22.3334 12.8333C25.8674 11.002 26.7934 7.2388 26.5445 5.02515Z" fill="url(#paint8_linear_2_22)"/>
<path d="M26.5206 11.0585C26.5169 11.039 26.5132 11.0195 26.5095 11C26.0231 14.5059 24.3634 16.0338 22.0762 17.4C21.2097 17.9175 20.4001 18.3144 19.6317 18.6331C19.1427 19.1001 16.8197 20.19 15.0674 20.9183C14.7108 21.0665 14.35 21.2165 13.9889 21.3698C15.2275 20.9632 16.3438 20.7101 17.4074 20.4689C19.0817 20.0894 20.6253 19.7394 22.3095 18.8667C25.8436 17.0354 26.7695 13.2721 26.5206 11.0585Z" fill="url(#paint9_linear_2_22)"/>
<path d="M8.55932 12.5956C8.94263 12.2201 9.36999 11.884 9.84367 11.5998C11.977 10.3198 14.2446 9.90699 16.451 9.50532C18.2092 9.18525 19.9286 8.87224 21.5103 8.13312C25.0768 6.46656 27.2767 3.00024 27.5769 0.00037384C27.577 0.000247955 27.577 0.000123978 27.577 -1.90735e-06C27.577 0.000535965 27.577 0.00107384 27.577 0.00161362C27.577 0.2306 27.5737 0.46257 27.5665 0.696947C27.5483 1.06878 27.5099 1.48079 27.4463 1.92017C26.9754 4.38726 25.6948 7.64347 22.8103 9.56647C21.5893 10.3805 20.1728 11.0318 18.7644 11.6299C17.5257 12.0366 16.4094 12.2897 15.3458 12.5308C13.6715 12.9104 12.1279 13.2604 10.4437 14.1331C6.90958 15.9644 5.98367 19.7277 6.23256 21.9413C5.70416 19.1364 5.91777 15.6865 8.55932 12.5956Z" fill="url(#paint10_linear_2_22)"/>
</g>
<defs>
<linearGradient id="paint0_linear_2_22" x1="17.4" y1="18.2" x2="5.86666" y2="26.4667" gradientUnits="userSpaceOnUse">
<stop stop-color="#FE5004"/>
<stop offset="0.602538" stop-color="#FFB915"/>
<stop offset="1" stop-color="#FFFC41"/>
</linearGradient>
<linearGradient id="paint1_linear_2_22" x1="12.8333" y1="18.9" x2="12.9" y2="20.1" gradientUnits="userSpaceOnUse">
<stop stop-color="#FD3E00"/>
<stop offset="1" stop-color="#FD4400" stop-opacity="0"/>
</linearGradient>
<linearGradient id="paint2_linear_2_22" x1="19.6667" y1="12" x2="3.4" y2="26.4667" gradientUnits="userSpaceOnUse">
<stop stop-color="#005FC6"/>
<stop offset="0.279756" stop-color="#23A4DF"/>
<stop offset="0.465158" stop-color="#3AC2B7"/>
<stop offset="0.640642" stop-color="#60EC7A"/>
<stop offset="0.818668" stop-color="#CFFDBD"/>
<stop offset="1" stop-color="#D0FCB6"/>
</linearGradient>
<linearGradient id="paint3_linear_2_22" x1="16.3667" y1="14.7667" x2="14.9667" y2="13.5" gradientUnits="userSpaceOnUse">
<stop stop-color="#0061CB"/>
<stop offset="1" stop-color="#067EEA" stop-opacity="0"/>
</linearGradient>
<linearGradient id="paint4_linear_2_22" x1="26.6" y1="5.00001" x2="5.2" y2="26.9333" gradientUnits="userSpaceOnUse">
<stop stop-color="#8E55F1"/>
<stop offset="0.140795" stop-color="#8B48DF"/>
<stop offset="0.274905" stop-color="#E04DD9"/>
<stop offset="0.492309" stop-color="#F496C8"/>
<stop offset="0.633104" stop-color="#FAD2BA"/>
<stop offset="0.856964" stop-color="#FEF7E5"/>
<stop offset="1" stop-color="#FFF5BF"/>
</linearGradient>
<linearGradient id="paint5_linear_2_22" x1="24.5" y1="14.1667" x2="7.03333" y2="22.0667" gradientUnits="userSpaceOnUse">
<stop stop-color="#F41A73"/>
<stop offset="0.399909" stop-color="#FC50A3"/>
<stop offset="0.584511" stop-color="#FE9485"/>
<stop offset="0.703104" stop-color="#FFAF88"/>
<stop offset="1" stop-color="#FFC385"/>
</linearGradient>
<linearGradient id="paint6_linear_2_22" x1="18.2" y1="16.6" x2="18.2333" y2="18.2" gradientUnits="userSpaceOnUse">
<stop stop-color="#9B0008"/>
<stop offset="1" stop-color="#EA115A" stop-opacity="0"/>
</linearGradient>
<linearGradient id="paint7_linear_2_22" x1="26.6" y1="6.80001" x2="10.8333" y2="17.1" gradientUnits="userSpaceOnUse">
<stop stop-color="#231283"/>
<stop offset="0.362865" stop-color="#7053C6"/>
<stop offset="0.466353" stop-color="#7272DB"/>
<stop offset="0.634311" stop-color="#399EE9"/>
<stop offset="1" stop-color="#00CFFF"/>
</linearGradient>
<linearGradient id="paint8_linear_2_22" x1="22.6667" y1="12" x2="23.3667" y2="12.9" gradientUnits="userSpaceOnUse">
<stop stop-color="#3F259D" stop-opacity="0"/>
<stop offset="1" stop-color="#412DAA"/>
</linearGradient>
<linearGradient id="paint9_linear_2_22" x1="26.5873" y1="12.8333" x2="10.8206" y2="23.1333" gradientUnits="userSpaceOnUse">
<stop stop-color="#231283"/>
<stop offset="0.362865" stop-color="#7053C6"/>
<stop offset="0.466353" stop-color="#7272DB"/>
<stop offset="0.634311" stop-color="#399EE9"/>
<stop offset="1" stop-color="#00CFFF"/>
</linearGradient>
<linearGradient id="paint10_linear_2_22" x1="6.17704" y1="21.9664" x2="27.577" y2="0.0331104" gradientUnits="userSpaceOnUse">
<stop stop-color="#8E55F1"/>
<stop offset="0.140795" stop-color="#8B48DF"/>
<stop offset="0.274905" stop-color="#E04DD9"/>
<stop offset="0.492309" stop-color="#F496C8"/>
<stop offset="0.633104" stop-color="#FAD2BA"/>
<stop offset="0.856964" stop-color="#FEF7E5"/>
<stop offset="1" stop-color="#FFF5BF"/>
</linearGradient>
<clipPath id="clip0_2_22">
<rect width="32" height="32" fill="white"/>
</clipPath>
</defs>
</svg>
